<?xml version="1.0" standalone="no"?>
<!DOCTYPE svg PUBLIC "-//W3C//DTD SVG 20010904//EN"
 "http://www.w3.org/TR/2001/REC-SVG-20010904/DTD/svg10.dtd">
<svg version="1.0" xmlns="http://www.w3.org/2000/svg"
 width="500.000000pt" height="500.000000pt" viewBox="0 0 500.000000 500.000000"
 preserveAspectRatio="xMidYMid meet">

<g transform="translate(0.000000,500.000000) scale(0.100000,-0.100000)"
fill="#000000" stroke="none">
<path d="M2379 4059 c-82 -8 -177 -30 -246 -56 -39 -14 -43 -19 -43 -48 l0
-33 68 23 c212 74 466 75 677 3 173 -59 349 -183 468 -328 76 -95 164 -261
192 -365 17 -61 20 -65 46 -65 37 0 37 17 4 116 -140 417 -503 709 -936 754
-111 11 -119 11 -230 -1z"/>
<path d="M2460 3915 c0 -8 7 -15 15 -15 8 0 15 7 15 15 0 8 -7 15 -15 15 -8 0
-15 -7 -15 -15z"/>
<path d="M2550 3915 c0 -8 7 -15 15 -15 8 0 15 7 15 15 0 8 -7 15 -15 15 -8 0
-15 -7 -15 -15z"/>
<path d="M2372 3908 c6 -18 28 -21 28 -4 0 9 -7 16 -16 16 -9 0 -14 -5 -12
-12z"/>
<path d="M2640 3906 c0 -9 7 -16 16 -16 9 0 14 5 12 12 -6 18 -28 21 -28 4z"/>
<path d="M2285 3901 c-7 -12 12 -24 25 -16 11 7 4 25 -10 25 -5 0 -11 -4 -15
-9z"/>
<path d="M2725 3891 c-7 -12 12 -24 25 -16 11 7 4 25 -10 25 -5 0 -11 -4 -15
-9z"/>
<path d="M2206 3883 c-11 -11 -6 -23 9 -23 8 0 15 4 15 9 0 13 -16 22 -24 14z"/>
<path d="M2812 3858 c6 -18 28 -21 28 -4 0 9 -7 16 -16 16 -9 0 -14 -5 -12
-12z"/>
<path d="M1882 3812 c-16 -60 -35 -79 -104 -103 -31 -10 -44 -18 -31 -18 13
-1 40 -8 62 -17 38 -15 58 -42 80 -109 7 -22 10 -24 10 -10 1 11 10 38 20 61
20 44 66 73 118 75 22 0 18 4 -26 19 -67 23 -89 45 -104 105 l-13 47 -12 -50z"/>
<path d="M2122 3846 c1 -10 8 -17 13 -17 15 1 12 24 -3 29 -9 3 -13 -2 -10
-12z"/>
<path d="M2890 3825 c0 -8 7 -15 15 -15 8 0 15 7 15 15 0 8 -7 15 -15 15 -8 0
-15 -7 -15 -15z"/>
<path d="M2976 3793 c-11 -11 -6 -23 9 -23 8 0 15 4 15 9 0 13 -16 22 -24 14z"/>
<path d="M2365 3756 c-312 -60 -550 -281 -636 -591 -31 -109 -31 -295 -1 -407
73 -269 272 -476 547 -569 63 -21 88 -24 235 -24 159 0 168 1 252 31 305 109
515 369 548 678 l7 71 2 -70 c0 -40 6 -76 13 -83 8 -8 61 -12 174 -12 138 0
164 2 175 17 11 12 14 55 14 175 0 146 -2 161 -19 174 -24 17 -306 20 -337 4
-16 -9 -19 -23 -20 -93 l-2 -82 -8 79 c-29 273 -216 531 -465 641 -146 65
-335 89 -479 61z m145 -105 l0 -89 -76 -11 c-64 -9 -124 -29 -210 -67 -11 -5
-94 131 -94 153 0 30 227 102 323 102 l57 1 0 -89z m455 -56 c88 -62 223 -214
204 -228 -36 -26 -138 -87 -146 -87 -6 0 -29 24 -51 53 -35 45 -85 90 -156
140 -17 13 -17 15 9 68 37 72 55 99 67 99 6 0 39 -20 73 -45z m-475 -119 c0
-9 -17 -16 -46 -21 -25 -3 -64 -13 -86 -21 -48 -17 -68 -18 -68 -3 0 19 109
55 178 58 13 1 22 -5 22 -13z m286 -61 c67 -38 89 -59 79 -75 -4 -6 -22 1 -48
19 -23 15 -61 38 -84 50 -24 12 -43 29 -43 37 0 20 12 15 96 -31z m-807 -145
l22 -15 -25 -55 c-26 -58 -41 -114 -51 -192 l-6 -48 -90 0 -89 0 0 53 c0 68
32 194 70 275 l29 62 59 -32 c32 -18 69 -40 81 -48z m561 31 c0 -25 5 -31 38
-41 43 -14 78 -43 98 -82 14 -27 13 -28 -23 -43 l-36 -15 -29 34 c-32 39 -70
52 -109 36 -31 -13 -54 -59 -45 -88 9 -26 34 -41 123 -76 86 -33 121 -58 139
-102 41 -99 -17 -214 -117 -230 -38 -6 -39 -7 -39 -50 0 -42 -1 -44 -29 -44
-28 0 -30 3 -33 42 -3 38 -6 43 -38 51 -49 13 -87 43 -110 87 -11 22 -20 41
-20 44 0 6 81 29 84 24 1 -2 10 -16 20 -31 37 -59 139 -72 172 -22 8 13 14 38
12 57 -3 36 -10 40 -160 107 -81 36 -108 72 -108 144 0 77 45 139 112 158 33
8 38 14 38 39 0 27 3 30 30 30 26 0 30 -3 30 -29z m-387 13 c3 -3 -10 -25 -28
-49 -18 -24 -41 -62 -51 -85 -16 -36 -44 -55 -44 -30 0 18 48 106 75 139 27
31 36 36 48 25z m866 -191 c24 -71 28 -137 9 -131 -7 3 -14 18 -16 34 -2 16
-12 57 -23 91 -11 35 -17 68 -14 74 11 16 21 0 44 -68z m429 -25 c17 -17 15
-43 -4 -59 -31 -26 -70 25 -44 56 15 18 32 19 48 3z m176 6 c21 -8 21 -48 0
-65 -31 -26 -70 25 -44 56 14 17 21 18 44 9z m16 -140 c0 -28 -25 -42 -49 -27
-23 15 -26 45 -6 59 25 18 55 0 55 -32z m-182 5 c2 -18 -3 -29 -14 -33 -27
-11 -54 3 -54 28 0 30 9 38 40 34 19 -2 26 -10 28 -29z m-158 -34 c0 -87 -58
-303 -90 -339 -5 -4 -44 11 -89 34 l-80 42 16 36 c28 65 53 165 53 214 l0 47
83 4 c45 1 88 4 95 5 8 1 12 -13 12 -43z m-1275 -31 c4 -31 13 -74 21 -96 13
-39 12 -58 -5 -58 -18 0 -59 179 -46 200 14 22 23 8 30 -46z m1430 -39 c0 -27
-3 -30 -30 -30 -21 0 -31 5 -33 18 -6 33 6 49 35 45 24 -3 28 -8 28 -33z m180
0 c0 -27 -3 -30 -30 -30 -21 0 -31 5 -33 18 -6 33 6 49 35 45 24 -3 28 -8 28
-33z m-620 -65 c12 -19 -82 -180 -106 -180 -16 0 -10 17 20 62 16 24 37 62 46
86 17 42 28 51 40 32z m-911 -256 c39 -38 82 -77 96 -85 l24 -16 -44 -76 c-24
-43 -48 -77 -52 -77 -14 0 -98 60 -147 105 -44 40 -131 150 -131 165 0 4 35
29 78 54 l77 46 14 -23 c8 -12 47 -54 85 -93z m194 -28 c35 -18 42 -36 14 -36
-18 0 -132 70 -152 95 -6 8 -9 19 -5 24 4 7 27 -5 58 -28 29 -21 67 -46 85
-55z m412 -29 c0 -22 -50 -39 -127 -45 -83 -5 -103 13 -25 23 26 4 67 13 92
20 59 17 60 17 60 2z m160 -116 c22 -37 40 -72 40 -78 0 -14 -122 -68 -197
-87 -34 -9 -89 -19 -122 -22 l-61 -7 0 97 0 96 36 0 c49 0 148 27 203 55 25
13 49 21 53 18 4 -2 26 -34 48 -72z"/>
<path d="M3047 3743 c-12 -11 -8 -23 8 -23 8 0 15 7 15 15 0 16 -12 20 -23 8z"/>
<path d="M3112 3678 c6 -18 28 -21 28 -4 0 9 -7 16 -16 16 -9 0 -14 -5 -12
-12z"/>
<path d="M3180 3616 c0 -9 7 -16 16 -16 17 0 14 22 -4 28 -7 2 -12 -3 -12 -12z"/>
<path d="M3237 3554 c-8 -8 1 -24 14 -24 5 0 9 7 9 15 0 15 -12 20 -23 9z"/>
<path d="M3285 3481 c-7 -12 12 -24 25 -16 11 7 4 25 -10 25 -5 0 -11 -4 -15
-9z"/>
<path d="M3330 3395 c0 -8 7 -15 15 -15 8 0 15 7 15 15 0 8 -7 15 -15 15 -8 0
-15 -7 -15 -15z"/>
<path d="M3365 3321 c-7 -12 12 -24 25 -16 11 7 4 25 -10 25 -5 0 -11 -4 -15
-9z"/>
<path d="M3397 3244 c-8 -8 1 -24 14 -24 5 0 9 7 9 15 0 15 -12 20 -23 9z"/>
<path d="M1319 3139 c-19 -19 -20 -30 -17 -180 2 -129 6 -162 18 -169 23 -15
333 -13 348 2 8 8 12 63 12 180 0 155 -1 168 -19 178 -11 5 -86 10 -170 10
-139 0 -153 -2 -172 -21z m102 -49 c38 -21 12 -79 -30 -65 -27 8 -32 29 -15
54 17 24 19 25 45 11z m199 -35 c0 -15 -7 -26 -20 -30 -41 -13 -70 43 -33 64
25 13 53 -5 53 -34z m-183 -161 c8 -21 -9 -48 -32 -53 -26 -5 -47 26 -34 50
12 23 57 25 66 3z m178 -19 c0 -27 -3 -30 -30 -30 -21 0 -31 5 -33 18 -6 33 6
49 35 45 24 -3 28 -8 28 -33z"/>
<path d="M1435 2692 c51 -195 158 -375 308 -518 107 -103 210 -171 340 -224
133 -54 221 -72 382 -77 150 -6 258 8 382 49 61 20 63 22 63 55 0 29 -3 34
-17 28 -203 -78 -440 -95 -638 -46 -355 88 -657 377 -751 719 -17 60 -18 62
-50 62 l-32 0 13 -48z"/>
<path d="M1580 2705 c0 -9 5 -15 11 -13 6 2 11 8 11 13 0 5 -5 11 -11 13 -6 2
-11 -4 -11 -13z"/>
<path d="M1602 2618 c6 -18 28 -21 28 -4 0 9 -7 16 -16 16 -9 0 -14 -5 -12
-12z"/>
<path d="M1642 2538 c6 -18 28 -21 28 -4 0 9 -7 16 -16 16 -9 0 -14 -5 -12
-12z"/>
<path d="M1685 2470 c-7 -12 2 -30 16 -30 12 0 12 27 0 35 -5 3 -12 1 -16 -5z"/>
<path d="M3212 2413 c-17 -63 -35 -80 -101 -100 l-56 -16 53 -12 c65 -15 79
-28 102 -95 l17 -51 11 44 c17 64 39 87 102 101 l55 13 -56 16 c-66 20 -83 36
-101 100 l-14 47 -12 -47z"/>
<path d="M1740 2385 c0 -9 5 -15 11 -13 6 2 11 8 11 13 0 5 -5 11 -11 13 -6 2
-11 -4 -11 -13z"/>
<path d="M1795 2330 c-7 -12 2 -30 16 -30 12 0 12 27 0 35 -5 3 -12 1 -16 -5z"/>
<path d="M1855 2261 c-3 -5 -1 -12 5 -16 12 -7 30 2 30 16 0 12 -27 12 -35 0z"/>
<path d="M1925 2211 c-7 -12 12 -24 25 -16 11 7 4 25 -10 25 -5 0 -11 -4 -15
-9z"/>
<path d="M2000 2156 c0 -9 7 -16 16 -16 9 0 14 5 12 12 -6 18 -28 21 -28 4z"/>
<path d="M2080 2116 c0 -9 7 -16 16 -16 17 0 14 22 -4 28 -7 2 -12 -3 -12 -12z"/>
<path d="M2857 2103 c-12 -11 -8 -23 8 -23 8 0 15 7 15 15 0 16 -12 20 -23 8z"/>
<path d="M2160 2075 c0 -8 7 -15 15 -15 8 0 15 7 15 15 0 8 -7 15 -15 15 -8 0
-15 -7 -15 -15z"/>
<path d="M2770 2065 c0 -8 7 -15 15 -15 8 0 15 7 15 15 0 8 -7 15 -15 15 -8 0
-15 -7 -15 -15z"/>
<path d="M2240 2050 c0 -5 9 -10 21 -10 11 0 17 5 14 10 -3 6 -13 10 -21 10
-8 0 -14 -4 -14 -10z"/>
<path d="M2336 2043 c-11 -11 -6 -23 9 -23 8 0 15 4 15 9 0 13 -16 22 -24 14z"/>
<path d="M2680 2040 c0 -5 7 -10 15 -10 8 0 15 5 15 10 0 6 -7 10 -15 10 -8 0
-15 -4 -15 -10z"/>
<path d="M2426 2033 c-11 -11 -6 -23 9 -23 8 0 15 4 15 9 0 13 -16 22 -24 14z"/>
<path d="M2515 2030 c-4 -6 -3 -16 3 -22 6 -6 12 -6 17 2 4 6 3 16 -3 22 -6 6
-12 6 -17 -2z"/>
<path d="M2595 2031 c-3 -5 -1 -12 5 -16 12 -7 30 2 30 16 0 12 -27 12 -35 0z"/>
<path d="M1152 1719 c-85 -42 -121 -138 -84 -221 30 -68 80 -101 158 -106 56
-4 124 10 124 25 0 2 -7 17 -15 33 -14 27 -17 28 -45 18 -62 -21 -141 18 -152
76 -6 30 12 75 40 100 22 19 78 25 119 12 18 -6 25 -1 38 24 l16 31 -35 14
c-50 21 -114 19 -164 -6z"/>
<path d="M1480 1715 c-4 -11 -27 -67 -50 -125 -23 -58 -51 -126 -61 -152 l-19
-48 41 0 c36 0 41 3 55 35 14 35 14 35 79 35 65 0 65 0 79 -35 14 -32 19 -35
55 -35 32 0 39 3 35 15 -4 8 -4 15 -1 15 2 0 21 -7 40 -15 46 -19 130 -19 166
-1 29 16 51 53 51 90 0 35 -33 70 -95 101 -83 42 -71 91 17 68 37 -10 39 -9
54 19 15 28 15 29 -20 43 -88 37 -186 -8 -186 -85 0 -38 25 -67 86 -102 43
-24 54 -35 52 -52 -4 -28 -55 -33 -99 -10 -23 11 -34 13 -37 5 -2 -6 -11 -20
-21 -32 -17 -21 -18 -18 -75 124 -32 81 -64 151 -70 157 -21 17 -67 8 -76 -15z
m74 -162 c7 -21 4 -23 -28 -23 -20 0 -36 1 -36 3 0 2 8 26 17 53 l17 49 12
-30 c6 -17 15 -40 18 -52z"/>
<path d="M2046 1706 c-62 -58 -46 -113 50 -168 43 -24 54 -35 52 -52 -4 -28
-55 -33 -99 -11 -33 18 -34 18 -60 -27 -14 -26 31 -51 102 -56 71 -5 115 11
134 49 33 63 9 109 -80 154 -83 42 -71 91 17 68 37 -10 39 -9 54 19 15 28 15
29 -20 43 -61 26 -110 20 -150 -19z"/>
<path d="M2280 1565 l0 -175 35 0 35 0 0 175 0 175 -35 0 -35 0 0 -175z"/>
<path d="M2410 1565 l0 -175 35 0 34 0 3 108 3 107 69 -107 c68 -107 70 -108
108 -108 l38 0 0 176 0 175 -37 -3 -38 -3 -3 -105 -3 -105 -70 108 c-66 102
-71 107 -104 107 l-35 0 0 -175z"/>
<path d="M2835 1726 c-125 -54 -139 -245 -23 -316 66 -40 186 -19 228 40 106
149 -41 348 -205 276z m133 -92 c39 -45 25 -140 -25 -163 -76 -35 -133 17
-123 114 7 78 96 107 148 49z"/>
<path d="M3240 1566 l0 -176 35 0 35 0 0 65 0 65 44 0 c82 0 136 60 122 135
-11 54 -51 76 -152 83 l-84 5 0 -177z m152 79 c9 -21 8 -28 -7 -45 -10 -11
-31 -20 -47 -20 -27 0 -28 2 -28 45 0 45 0 45 35 45 28 0 38 -5 47 -25z"/>
<path d="M3520 1563 l0 -173 35 0 35 0 0 175 0 174 -35 -1 -35 -1 0 -174z"/>
<path d="M3640 1729 c0 -5 22 -42 49 -82 l48 -72 -63 -90 -64 -90 47 -3 c31
-2 49 1 54 10 4 7 23 34 41 60 l34 48 40 -58 c37 -54 41 -57 87 -60 26 -2 47
0 47 3 0 4 -27 44 -60 89 -33 46 -60 87 -60 91 0 5 23 41 50 81 28 40 50 75
50 78 0 9 -73 7 -85 -2 -6 -4 -24 -26 -41 -49 l-30 -41 -28 44 c-15 24 -33 45
-39 45 -7 1 -27 3 -44 5 -19 2 -33 -1 -33 -7z"/>
</g>
</svg>
